<mxfile host="Electron" modified="2023-11-14T02:17:44.150Z" agent="Mozilla/5.0 (X11; Linux x86_64) AppleWebKit/537.36 (KHTML, like Gecko) draw.io/22.0.3 Chrome/114.0.5735.289 Electron/25.8.4 Safari/537.36" etag="J-69FaFP3L3V0xdPki3G" version="22.0.3" type="device">
  <diagram name="Page-1" id="DE2Egb7rzKDN__Y2lRfj">
    <mxGraphModel dx="988" dy="590" grid="1" gridSize="10" guides="1" tooltips="1" connect="1" arrows="1" fold="1" page="1" pageScale="1" pageWidth="827" pageHeight="1169" math="0" shadow="0">
      <root>
        <mxCell id="0" />
        <mxCell id="1" parent="0" />
        <mxCell id="rFXv5ldUa-PhvEfWpQiy-73" value="" style="rounded=0;whiteSpace=wrap;html=1;fillColor=#eeeeee;strokeColor=#36393d;" vertex="1" parent="1">
          <mxGeometry x="110" y="630" width="220" height="210" as="geometry" />
        </mxCell>
        <mxCell id="rFXv5ldUa-PhvEfWpQiy-44" value="" style="group" vertex="1" connectable="0" parent="1">
          <mxGeometry x="350.00499999999994" y="773.3250000000002" width="61.16999999999996" height="53.344999999999914" as="geometry" />
        </mxCell>
        <mxCell id="rFXv5ldUa-PhvEfWpQiy-40" value="" style="group" vertex="1" connectable="0" parent="rFXv5ldUa-PhvEfWpQiy-44">
          <mxGeometry width="61.16999999999996" height="25.340000000000032" as="geometry" />
        </mxCell>
        <mxCell id="rFXv5ldUa-PhvEfWpQiy-41" value="" style="sketch=0;shadow=0;dashed=0;html=1;strokeColor=none;labelPosition=center;verticalLabelPosition=bottom;verticalAlign=top;outlineConnect=0;align=center;shape=mxgraph.office.databases.database;fillColor=#2072B8;rotation=-90;" vertex="1" parent="rFXv5ldUa-PhvEfWpQiy-40">
          <mxGeometry x="17.91500000000002" y="-17.915000000000077" width="25.34" height="61.17" as="geometry" />
        </mxCell>
        <mxCell id="rFXv5ldUa-PhvEfWpQiy-42" value="" style="shape=image;verticalLabelPosition=bottom;labelBackgroundColor=default;verticalAlign=top;aspect=fixed;imageAspect=0;image=data:image/svg+xml,PHN2ZyB4bWxucz0iaHR0cDovL3d3dy53My5vcmcvMjAwMC9zdmciIHByZXNlcnZlQXNwZWN0UmF0aW89InhNaWRZTWlkIiB2aWV3Qm94PSIwIDAgMjU2IDI3MC43Njk5ODkwMTM2NzE5IiBoZWlnaHQ9IjI0OTcuODc4MTI3NDMyMzk3NCIgd2lkdGg9IjIzNjIiPjxwYXRoIGZpbGw9IiNGNjAiIGQ9Ik0yNDUuNDQgMTA4LjMwOGgtODUuMDlhNy43MzggNy43MzggMCAwIDEtNy43MzUtNy43MzR2LTg4LjY4QzE1Mi42MTUgNS4zMjcgMTQ3LjI5IDAgMTQwLjcyNiAwaC0zMC4zNzVjLTYuNTY4IDAtMTEuODkgNS4zMjctMTEuODkgMTEuODk0djg4LjE0M2MwIDQuNTczLTMuNjk3IDguMjktOC4yNyA4LjMxbC0yNy44ODUuMTMzYy00LjYxMi4wMjUtOC4zNTktMy43MTctOC4zNS04LjMyNWwuMTczLTg4LjI0MUM1NC4xNDQgNS4zMzcgNDguODE3IDAgNDIuMjQgMEgxMS44OUM1LjMyMSAwIDAgNS4zMjcgMCAxMS44OTRWMjYwLjIxYzAgNS44MzQgNC43MjYgMTAuNTYgMTAuNTU1IDEwLjU2SDI0NS40NGM1LjgzNCAwIDEwLjU2LTQuNzI2IDEwLjU2LTEwLjU2VjExOC44NjhjMC01LjgzNC00LjcyNi0xMC41Ni0xMC41Ni0xMC41NnptLTM5LjkwMiA5My4yMzNjMCA3LjY0NS02LjE5OCAxMy44NDQtMTMuODQzIDEzLjg0NEgxNjcuNjljLTcuNjQ2IDAtMTMuODQ0LTYuMTk5LTEzLjg0NC0xMy44NDR2LTI0LjAwNWMwLTcuNjQ2IDYuMTk4LTEzLjg0NCAxMy44NDQtMTMuODQ0aDI0LjAwNWM3LjY0NSAwIDEzLjg0MyA2LjE5OCAxMy44NDMgMTMuODQ0djI0LjAwNXoiLz48L3N2Zz4=;" vertex="1" parent="rFXv5ldUa-PhvEfWpQiy-40">
          <mxGeometry x="23.085000000000036" y="2.6749999999999545" width="18.91" height="20" as="geometry" />
        </mxCell>
        <mxCell id="rFXv5ldUa-PhvEfWpQiy-43" value="Room Service MQ" style="text;html=1;strokeColor=none;fillColor=none;align=center;verticalAlign=middle;whiteSpace=wrap;rounded=0;fontSize=9;spacing=2;horizontal=1;fontStyle=1" vertex="1" parent="rFXv5ldUa-PhvEfWpQiy-44">
          <mxGeometry x="1.1650000000000773" y="25.344999999999914" width="58.84" height="28" as="geometry" />
        </mxCell>
        <mxCell id="rFXv5ldUa-PhvEfWpQiy-48" value="" style="group" vertex="1" connectable="0" parent="1">
          <mxGeometry x="200" y="760" width="60" height="80" as="geometry" />
        </mxCell>
        <mxCell id="rFXv5ldUa-PhvEfWpQiy-46" value="API Server" style="text;html=1;strokeColor=none;fillColor=none;align=center;verticalAlign=middle;whiteSpace=wrap;rounded=0;fontSize=9;spacing=2;horizontal=1;fontStyle=1" vertex="1" parent="rFXv5ldUa-PhvEfWpQiy-48">
          <mxGeometry y="52" width="60" height="28" as="geometry" />
        </mxCell>
        <mxCell id="rFXv5ldUa-PhvEfWpQiy-47" value="" style="sketch=0;pointerEvents=1;shadow=0;dashed=0;html=1;strokeColor=none;labelPosition=center;verticalLabelPosition=bottom;verticalAlign=top;outlineConnect=0;align=center;shape=mxgraph.office.servers.server_generic;fillColor=#7FBA42;" vertex="1" parent="rFXv5ldUa-PhvEfWpQiy-48">
          <mxGeometry x="16.5" width="27" height="52" as="geometry" />
        </mxCell>
        <mxCell id="rFXv5ldUa-PhvEfWpQiy-59" style="edgeStyle=orthogonalEdgeStyle;rounded=0;orthogonalLoop=1;jettySize=auto;html=1;" edge="1" parent="1" source="rFXv5ldUa-PhvEfWpQiy-47" target="rFXv5ldUa-PhvEfWpQiy-41">
          <mxGeometry relative="1" as="geometry" />
        </mxCell>
        <mxCell id="rFXv5ldUa-PhvEfWpQiy-60" value="Listen for room events" style="text;html=1;strokeColor=none;fillColor=none;align=center;verticalAlign=middle;whiteSpace=wrap;rounded=0;fontSize=9;spacing=2;horizontal=1;fontStyle=2" vertex="1" parent="1">
          <mxGeometry x="250" y="760" width="70" height="23" as="geometry" />
        </mxCell>
        <mxCell id="rFXv5ldUa-PhvEfWpQiy-61" value="" style="group" vertex="1" connectable="0" parent="1">
          <mxGeometry x="199.99999999999997" y="630" width="60" height="77.5" as="geometry" />
        </mxCell>
        <mxCell id="rFXv5ldUa-PhvEfWpQiy-54" value="" style="group" vertex="1" connectable="0" parent="rFXv5ldUa-PhvEfWpQiy-61">
          <mxGeometry x="12.29000000000002" y="28" width="35.42000000000002" height="49.5" as="geometry" />
        </mxCell>
        <mxCell id="rFXv5ldUa-PhvEfWpQiy-55" value="" style="sketch=0;shadow=0;dashed=0;html=1;strokeColor=none;fillColor=#505050;labelPosition=center;verticalLabelPosition=bottom;verticalAlign=top;outlineConnect=0;align=center;shape=mxgraph.office.databases.database;" vertex="1" parent="rFXv5ldUa-PhvEfWpQiy-54">
          <mxGeometry width="35" height="49" as="geometry" />
        </mxCell>
        <mxCell id="rFXv5ldUa-PhvEfWpQiy-56" value="" style="image;sketch=0;aspect=fixed;html=1;points=[];align=center;fontSize=12;image=img/lib/mscae/Cache_Redis_Product.svg;" vertex="1" parent="rFXv5ldUa-PhvEfWpQiy-54">
          <mxGeometry x="6.990000000000009" y="21" width="21.43" height="18" as="geometry" />
        </mxCell>
        <mxCell id="rFXv5ldUa-PhvEfWpQiy-58" value="Message Broker" style="text;html=1;strokeColor=none;fillColor=none;align=center;verticalAlign=middle;whiteSpace=wrap;rounded=0;fontSize=9;spacing=2;horizontal=1;fontStyle=1" vertex="1" parent="rFXv5ldUa-PhvEfWpQiy-61">
          <mxGeometry width="60" height="28" as="geometry" />
        </mxCell>
        <mxCell id="rFXv5ldUa-PhvEfWpQiy-65" style="edgeStyle=orthogonalEdgeStyle;rounded=0;orthogonalLoop=1;jettySize=auto;html=1;exitX=1;exitY=0.25;exitDx=0;exitDy=0;" edge="1" parent="1" source="rFXv5ldUa-PhvEfWpQiy-62" target="rFXv5ldUa-PhvEfWpQiy-47">
          <mxGeometry relative="1" as="geometry">
            <Array as="points">
              <mxPoint x="120" y="780" />
              <mxPoint x="120" y="780" />
            </Array>
          </mxGeometry>
        </mxCell>
        <mxCell id="rFXv5ldUa-PhvEfWpQiy-62" value="Client / Server" style="text;html=1;strokeColor=none;fillColor=none;align=center;verticalAlign=middle;whiteSpace=wrap;rounded=0;fontSize=9;spacing=2;horizontal=1;fontStyle=1" vertex="1" parent="1">
          <mxGeometry x="54" y="769" width="40" height="41" as="geometry" />
        </mxCell>
        <mxCell id="rFXv5ldUa-PhvEfWpQiy-64" value="Send chat message via WebSocket" style="text;html=1;strokeColor=none;fillColor=none;align=center;verticalAlign=middle;whiteSpace=wrap;rounded=0;fontSize=9;spacing=2;horizontal=1;fontStyle=2" vertex="1" parent="1">
          <mxGeometry x="120" y="750.33" width="90" height="23" as="geometry" />
        </mxCell>
        <mxCell id="rFXv5ldUa-PhvEfWpQiy-66" value="" style="endArrow=classic;html=1;rounded=0;entryX=1;entryY=0.75;entryDx=0;entryDy=0;edgeStyle=orthogonalEdgeStyle;" edge="1" parent="1" source="rFXv5ldUa-PhvEfWpQiy-47" target="rFXv5ldUa-PhvEfWpQiy-62">
          <mxGeometry width="50" height="50" relative="1" as="geometry">
            <mxPoint x="210" y="800" as="sourcePoint" />
            <mxPoint x="180" y="790" as="targetPoint" />
            <Array as="points">
              <mxPoint x="148" y="800" />
            </Array>
          </mxGeometry>
        </mxCell>
        <mxCell id="rFXv5ldUa-PhvEfWpQiy-67" value="Send chat message via WebSocket" style="text;html=1;strokeColor=none;fillColor=none;align=center;verticalAlign=middle;whiteSpace=wrap;rounded=0;fontSize=9;spacing=2;horizontal=1;fontStyle=2" vertex="1" parent="1">
          <mxGeometry x="120" y="803.6700000000001" width="90" height="23" as="geometry" />
        </mxCell>
        <mxCell id="rFXv5ldUa-PhvEfWpQiy-68" style="edgeStyle=orthogonalEdgeStyle;rounded=0;orthogonalLoop=1;jettySize=auto;html=1;" edge="1" parent="1" source="rFXv5ldUa-PhvEfWpQiy-47" target="rFXv5ldUa-PhvEfWpQiy-55">
          <mxGeometry relative="1" as="geometry">
            <Array as="points">
              <mxPoint x="220" y="740" />
              <mxPoint x="220" y="740" />
            </Array>
          </mxGeometry>
        </mxCell>
        <mxCell id="rFXv5ldUa-PhvEfWpQiy-69" value="Publish/Listen for&amp;nbsp; chat message" style="text;html=1;strokeColor=none;fillColor=none;align=center;verticalAlign=middle;whiteSpace=wrap;rounded=0;fontSize=9;spacing=2;horizontal=1;fontStyle=2" vertex="1" parent="1">
          <mxGeometry x="140" y="720" width="80" height="20" as="geometry" />
        </mxCell>
        <mxCell id="rFXv5ldUa-PhvEfWpQiy-72" style="edgeStyle=orthogonalEdgeStyle;rounded=0;orthogonalLoop=1;jettySize=auto;html=1;" edge="1" parent="1" source="rFXv5ldUa-PhvEfWpQiy-47" target="rFXv5ldUa-PhvEfWpQiy-55">
          <mxGeometry relative="1" as="geometry">
            <mxPoint x="240" y="710" as="targetPoint" />
            <Array as="points">
              <mxPoint x="240" y="710" />
              <mxPoint x="240" y="710" />
            </Array>
          </mxGeometry>
        </mxCell>
        <mxCell id="rFXv5ldUa-PhvEfWpQiy-74" value="&lt;u&gt;Chat Service&lt;/u&gt;" style="text;html=1;strokeColor=none;fillColor=none;align=center;verticalAlign=middle;whiteSpace=wrap;rounded=0;fontSize=9;spacing=2;horizontal=1;" vertex="1" parent="1">
          <mxGeometry x="110" y="630" width="70" height="20" as="geometry" />
        </mxCell>
        <mxCell id="rFXv5ldUa-PhvEfWpQiy-75" value="Update with room information" style="text;html=1;strokeColor=none;fillColor=none;align=center;verticalAlign=middle;whiteSpace=wrap;rounded=0;fontSize=9;spacing=2;horizontal=1;fontStyle=2" vertex="1" parent="1">
          <mxGeometry x="240" y="720" width="80" height="20" as="geometry" />
        </mxCell>
      </root>
    </mxGraphModel>
  </diagram>
</mxfile>
